<!--?xml version="1.0" standalone="no"?-->

<svg version="1.0" xmlns="http://www.w3.org/2000/svg" width="200.000000pt" height="200.000000pt" viewBox="0 0 200.000000 200.000000" preserveAspectRatio="xMidYMid meet">

<g transform="translate(0.000000,200.000000) scale(0.100000,-0.100000)" fill="#000000" stroke="none">
<polygon fill="#0DCAF0" points="911,1678,813.2,1556,701.4,1415.9,662.5,1366.5,657,1359,657.7,1357.5,664.1,1350.5,684.9,1331,730,1291.1,790.1,1239.6,824,1211,993,1069,1120,1262,1248,1455,1211,1717,1203.5,1769.7,1189.4,1864.3,1177.7,1936.9,1171.4,1971.5,1168.8,1983.1,1168,1985,1167.4,1984.9,1164.3,1982.2,1155.1,1972.5,1122,1934.5,1052.6,1851.5,961.8,1740.7,911,1678,911,1678"></polygon>
<polygon fill="#099FBD" points="1148,1242,1102.5,1172.1,1050,1090.3,1031.1,1059.8,1028,1054,1028.4,1052.8,1032.6,1047.5,1046.7,1033.1,1077.7,1004.2,1119.5,966.7,1168.9,923.6,1222.4,877.9,1276.6,832.6,1328.2,790.7,1352,772,1353.4,771,1357.1,769.4,1365,767.9,1381.5,767.7,1406.5,769.8,1442.1,774.6,1490.3,782.3,1590.6,799.9,1679,816,1741.5,827.8,1852.5,849.5,1936.7,866.9,1976,875.7,1988.4,879.1,1990,880,1988.3,881.8,1975.2,892.4,1934,924,1790,1031.5,1663,1125,1422.4,1302.4,1301,1392,1265,1418,1148,1242,1148,1242"></polygon>
<polygon fill="#099FBD" points="308,1296,250.2,1287.8,147,1272.3,68,1259.4,30.5,1252.6,18,1249.8,16,1249,17.4,1247.1,30.3,1234.6,72.1,1197.1,214.4,1073.2,455.9,866.3,614.2,732.7,682.4,676.6,700,663,701.4,662.1,704.3,660.8,707.5,660.5,711.1,661.4,715.1,663.6,719.8,667.2,728.3,675.7,743.1,693.8,762.7,720.7,803.6,780.4,840,835,864.5,872.2,908.4,940,941.7,993.7,957.4,1020.9,962.4,1031.4,963,1034,962.8,1034.9,961.1,1038,955,1045.3,932.2,1068.3,884.5,1112.2,824,1165.3,758.7,1220.9,696.4,1272.4,644.9,1313,618.1,1332.3,609.6,1337.4,606.1,1338.9,605,1339,513.9,1325.8,308,1296,308,1296"></polygon>
<polygon fill="#0DCAF0" points="867,816,732,613,769,317,784.1,201.5,802.4,68.9,809.5,22.2,811,15,811.7,15.2,815.2,18.7,825.3,31.1,861,78,933.3,176.6,1023,301,1118.2,434.8,1207.2,561.2,1278.2,663.9,1312.5,715.3,1323.5,733.5,1325,737,1324.2,739,1317.7,746.8,1297.3,767.1,1253.6,806.8,1196.2,856.7,1164,884,1002,1019,867,816,867,816"></polygon>
</g>
</svg>
